<?xml version="1.0"?><svg xmlns="http://www.w3.org/2000/svg"  viewBox="0 0 50 50" width="500px" height="500px">    <path d="M 11 3 L 11 10 L 22 10 L 22 24 C 22 30.168 21.832 30.362797 13 34.341797 L 12.121094 34.736328 L 12.484375 35.628906 C 13.181375 37.346906 14.136313 38.942047 15.320312 40.373047 L 15.804688 40.957031 L 16.498047 40.648438 C 26.780047 36.057438 29 33.277 29 25 L 29 3 L 11 3 z M 32 3 L 32 26 C 32 35.483 28.625312 38.028531 19.695312 42.394531 L 18.113281 43.167969 L 19.587891 44.128906 C 20.738891 44.880906 21.928219 45.657297 24.574219 46.904297 L 25 47.105469 L 25.425781 46.904297 C 32.137781 43.743297 39 38.906 39 27 L 39 3 L 32 3 z"/></svg>